<svg xmlns="http://www.w3.org/2000/svg" viewBox="0 0 240 260"><defs><radialGradient id="bodyGrad" cx="45%" cy="40%" r="60%"><stop offset="0%" stop-color="#E2A191"/><stop offset="100%" stop-color="#D26E55"/></radialGradient><radialGradient id="blushL" cx="50%" cy="50%" r="50%"><stop offset="0%" stop-color="#D53434" stop-opacity="0.4"/><stop offset="100%" stop-color="#D53434" stop-opacity="0"/></radialGradient><radialGradient id="blushR" cx="50%" cy="50%" r="50%"><stop offset="0%" stop-color="#D53434" stop-opacity="0.4"/><stop offset="100%" stop-color="#D53434" stop-opacity="0"/></radialGradient><radialGradient id="highL" cx="50%" cy="50%" r="50%"><stop offset="0%" stop-color="#FFFFFF" stop-opacity="0.4"/><stop offset="100%" stop-color="#FFFFFF" stop-opacity="0"/></radialGradient><radialGradient id="highR" cx="50%" cy="50%" r="50%"><stop offset="0%" stop-color="#FFFFFF" stop-opacity="0.4"/><stop offset="100%" stop-color="#FFFFFF" stop-opacity="0"/></radialGradient></defs><path d="M 120.0 44.1 C 60.5 26.0, 23.7 63.8, 23.7 100.3 C 15.0 140.8, 61.8 214.5, 120.0 215.9 C 178.2 214.5, 225.0 140.8, 216.3 100.3 C 216.3 63.8, 179.5 26.0, 120.0 44.1 Z" fill="url(#bodyGrad)" stroke="#CD4827" stroke-width="3.2" stroke-linejoin="round"/><path d="M 120.0 54.1 C 86.0 98.1, 114.9 186.2, 120.0 200.9" fill="none" stroke="#CD4827" stroke-width="3.5" stroke-linecap="round"/><ellipse cx="71.8" cy="114.1" rx="29.5" ry="23.5" fill="url(#blushL)"/><ellipse cx="168.2" cy="114.1" rx="29.5" ry="23.5" fill="url(#blushR)"/><ellipse cx="61.8" cy="92.1" rx="20.6" ry="15.1" fill="url(#highL)"/><ellipse cx="178.2" cy="92.1" rx="20.6" ry="15.1" fill="url(#highR)"/><path d="M 139.2 179.4 C 133.7 184.9, 133.7 192.1, 139.2 193.9 C 144.6 192.1, 144.6 184.9, 139.2 179.4 Z" fill="#D0E8FF" opacity="0.6"/><path d="M 68.0 139.0 C 62.5 144.4, 62.5 151.6, 68.0 153.5 C 73.4 151.6, 73.4 144.4, 68.0 139.0 Z" fill="#D0E8FF" opacity="0.6"/><path d="M 177.6 124.4 C 172.2 129.8, 172.2 137.0, 177.6 138.9 C 183.0 137.0, 183.0 129.8, 177.6 124.4 Z" fill="#D0E8FF" opacity="0.7"/><path d="M 95.8 198.8 C 90.4 204.3, 90.4 211.5, 95.8 213.3 C 101.3 211.5, 101.3 204.3, 95.8 198.8 Z" fill="#D0E8FF" opacity="0.7"/><path d="M 86.6 120.7 C 81.1 126.2, 81.1 133.4, 86.6 135.2 C 92.0 133.4, 92.0 126.2, 86.6 120.7 Z" fill="#D0E8FF" opacity="0.7"/></svg>