<svg xmlns="http://www.w3.org/2000/svg" viewBox="0 0 240 260"><defs><radialGradient id="bodyGrad" cx="45%" cy="40%" r="60%"><stop offset="0%" stop-color="#E2A594"/><stop offset="100%" stop-color="#D27258"/></radialGradient><radialGradient id="blushL" cx="50%" cy="50%" r="50%"><stop offset="0%" stop-color="#D97272" stop-opacity="0.1"/><stop offset="100%" stop-color="#D97272" stop-opacity="0"/></radialGradient><radialGradient id="blushR" cx="50%" cy="50%" r="50%"><stop offset="0%" stop-color="#D97272" stop-opacity="0.1"/><stop offset="100%" stop-color="#D97272" stop-opacity="0"/></radialGradient><radialGradient id="highL" cx="50%" cy="50%" r="50%"><stop offset="0%" stop-color="#FFFFFF" stop-opacity="0.5"/><stop offset="100%" stop-color="#FFFFFF" stop-opacity="0"/></radialGradient><radialGradient id="highR" cx="50%" cy="50%" r="50%"><stop offset="0%" stop-color="#FFFFFF" stop-opacity="0.5"/><stop offset="100%" stop-color="#FFFFFF" stop-opacity="0"/></radialGradient></defs><path d="M 120.0 46.3 C 63.3 31.7, 30.9 66.3, 30.9 103.5 C 23.9 142.1, 65.4 211.7, 120.0 213.7 C 174.6 211.7, 216.1 142.1, 209.1 103.5 C 209.1 66.3, 176.7 31.7, 120.0 46.3 Z" fill="url(#bodyGrad)" stroke="#CE4C28" stroke-width="3.1" stroke-linejoin="round"/><path d="M 120.0 56.3 C 91.7 99.0, 115.8 184.5, 120.0 198.7" fill="none" stroke="#CE4C28" stroke-width="3.2" stroke-linecap="round"/><ellipse cx="75.4" cy="116.9" rx="20.7" ry="16.2" fill="url(#blushL)"/><ellipse cx="164.6" cy="116.9" rx="20.7" ry="16.2" fill="url(#blushR)"/><ellipse cx="65.4" cy="94.9" rx="21.7" ry="15.8" fill="url(#highL)"/><ellipse cx="174.6" cy="94.9" rx="21.7" ry="15.8" fill="url(#highR)"/><path d="M 135.5 178.2 C 130.5 183.2, 130.5 189.8, 135.5 191.5 C 140.5 189.8, 140.5 183.2, 135.5 178.2 Z" fill="#D0E8FF" opacity="0.6"/><path d="M 77.9 146.5 C 72.9 151.5, 72.9 158.1, 77.9 159.8 C 82.9 158.1, 82.9 151.5, 77.9 146.5 Z" fill="#D0E8FF" opacity="0.6"/><path d="M 166.6 134.9 C 161.6 139.9, 161.6 146.5, 166.6 148.2 C 171.6 146.5, 171.6 139.9, 166.6 134.9 Z" fill="#D0E8FF" opacity="0.6"/><path d="M 100.4 194.6 C 95.5 199.5, 95.5 206.2, 100.4 207.9 C 105.4 206.2, 105.4 199.5, 100.4 194.6 Z" fill="#D0E8FF" opacity="0.7"/><path d="M 93.0 129.9 C 88.0 134.9, 88.0 141.5, 93.0 143.2 C 97.9 141.5, 97.9 134.9, 93.0 129.9 Z" fill="#D0E8FF" opacity="0.7"/><path d="M 186.6 141.8 C 181.7 146.8, 181.7 153.4, 186.6 155.1 C 191.6 153.4, 191.6 146.8, 186.6 141.8 Z" fill="#D0E8FF" opacity="0.7"/><path d="M 46.2 130.1 C 41.3 135.1, 41.3 141.7, 46.2 143.4 C 51.2 141.7, 51.2 135.1, 46.2 130.1 Z" fill="#D0E8FF" opacity="0.7"/></svg>