<svg xmlns="http://www.w3.org/2000/svg" viewBox="0 0 240 260"><defs><radialGradient id="bodyGrad" cx="45%" cy="40%" r="60%"><stop offset="0%" stop-color="#E9C9B8"/><stop offset="100%" stop-color="#D69D7E"/></radialGradient><radialGradient id="blushL" cx="50%" cy="50%" r="50%"><stop offset="0%" stop-color="#DA7C7C" stop-opacity="0.1"/><stop offset="100%" stop-color="#DA7C7C" stop-opacity="0"/></radialGradient><radialGradient id="blushR" cx="50%" cy="50%" r="50%"><stop offset="0%" stop-color="#DA7C7C" stop-opacity="0.1"/><stop offset="100%" stop-color="#DA7C7C" stop-opacity="0"/></radialGradient><radialGradient id="highL" cx="50%" cy="50%" r="50%"><stop offset="0%" stop-color="#FFFFFF" stop-opacity="0.3"/><stop offset="100%" stop-color="#FFFFFF" stop-opacity="0"/></radialGradient><radialGradient id="highR" cx="50%" cy="50%" r="50%"><stop offset="0%" stop-color="#FFFFFF" stop-opacity="0.3"/><stop offset="100%" stop-color="#FFFFFF" stop-opacity="0"/></radialGradient></defs><path d="M 120.0 49.4 C 67.6 40.1, 41.4 69.9, 41.4 107.9 C 36.9 143.8, 70.7 207.4, 120.0 210.6 C 169.3 207.4, 203.1 143.8, 198.6 107.9 C 198.6 69.9, 172.4 40.1, 120.0 49.4 Z" fill="url(#bodyGrad)" stroke="#D57D4C" stroke-width="2.9" stroke-linejoin="round"/><path d="M 120.0 59.4 C 100.1 100.3, 117.0 182.0, 120.0 195.6" fill="none" stroke="#D57D4C" stroke-width="2.7" stroke-linecap="round"/><ellipse cx="80.7" cy="120.8" rx="19.2" ry="15.0" fill="url(#blushL)"/><ellipse cx="159.3" cy="120.8" rx="19.2" ry="15.0" fill="url(#blushR)"/><ellipse cx="70.7" cy="98.8" rx="19.2" ry="14.2" fill="url(#highL)"/><ellipse cx="169.3" cy="98.8" rx="19.2" ry="14.2" fill="url(#highR)"/><path d="M 139.2 180.4 C 134.9 184.7, 134.9 190.4, 139.2 191.9 C 143.5 190.4, 143.5 184.7, 139.2 180.4 Z" fill="#D0E8FF" opacity="0.6"/><path d="M 67.9 131.3 C 63.6 135.7, 63.6 141.4, 67.9 142.9 C 72.2 141.4, 72.2 135.7, 67.9 131.3 Z" fill="#D0E8FF" opacity="0.7"/><path d="M 177.7 114.1 C 173.4 118.5, 173.4 124.2, 177.7 125.7 C 182.0 124.2, 182.0 118.5, 177.7 114.1 Z" fill="#D0E8FF" opacity="0.7"/></svg>