<svg xmlns="http://www.w3.org/2000/svg" viewBox="0 0 240 260"><defs><radialGradient id="bodyGrad" cx="45%" cy="40%" r="60%"><stop offset="0%" stop-color="#E2AD9C"/><stop offset="100%" stop-color="#D17C60"/></radialGradient><radialGradient id="blushL" cx="50%" cy="50%" r="50%"><stop offset="0%" stop-color="#D53434" stop-opacity="0.4"/><stop offset="100%" stop-color="#D53434" stop-opacity="0"/></radialGradient><radialGradient id="blushR" cx="50%" cy="50%" r="50%"><stop offset="0%" stop-color="#D53434" stop-opacity="0.4"/><stop offset="100%" stop-color="#D53434" stop-opacity="0"/></radialGradient><radialGradient id="highL" cx="50%" cy="50%" r="50%"><stop offset="0%" stop-color="#FFFFFF" stop-opacity="0.3"/><stop offset="100%" stop-color="#FFFFFF" stop-opacity="0"/></radialGradient><radialGradient id="highR" cx="50%" cy="50%" r="50%"><stop offset="0%" stop-color="#FFFFFF" stop-opacity="0.3"/><stop offset="100%" stop-color="#FFFFFF" stop-opacity="0"/></radialGradient></defs><path d="M 120.0 46.5 C 63.6 32.3, 31.6 66.5, 31.6 103.8 C 24.8 142.2, 65.8 211.4, 120.0 213.5 C 174.2 211.4, 215.2 142.2, 208.4 103.8 C 208.4 66.5, 176.4 32.3, 120.0 46.5 Z" fill="url(#bodyGrad)" stroke="#D2562C" stroke-width="3.1" stroke-linejoin="round"/><path d="M 120.0 56.5 C 92.3 99.1, 115.8 184.3, 120.0 198.5" fill="none" stroke="#D2562C" stroke-width="3.1" stroke-linecap="round"/><ellipse cx="75.8" cy="117.2" rx="29.5" ry="23.5" fill="url(#blushL)"/><ellipse cx="164.2" cy="117.2" rx="29.5" ry="23.5" fill="url(#blushR)"/><ellipse cx="65.8" cy="95.2" rx="18.9" ry="13.9" fill="url(#highL)"/><ellipse cx="174.2" cy="95.2" rx="18.9" ry="13.9" fill="url(#highR)"/><path d="M 141.6 180.8 C 136.7 185.7, 136.7 192.3, 141.6 194.0 C 146.5 192.3, 146.5 185.7, 141.6 180.8 Z" fill="#D0E8FF" opacity="0.6"/><path d="M 61.4 128.4 C 56.5 133.4, 56.5 139.9, 61.4 141.6 C 66.4 139.9, 66.4 133.4, 61.4 128.4 Z" fill="#D0E8FF" opacity="0.7"/><path d="M 184.9 110.0 C 179.9 115.0, 179.9 121.6, 184.9 123.2 C 189.8 121.6, 189.8 115.0, 184.9 110.0 Z" fill="#D0E8FF" opacity="0.7"/></svg>